<?xml version="1.0" encoding="utf-8"?>
<!-- Generator: Adobe Illustrator 27.0.0, SVG Export Plug-In . SVG Version: 6.00 Build 0)  -->
<svg version="1.1" id="elements" xmlns="http://www.w3.org/2000/svg" xmlns:xlink="http://www.w3.org/1999/xlink" x="0px" y="0px"
	 viewBox="0 0 633 192" style="enable-background:new 0 0 633 192;" xml:space="preserve">
<style type="text/css">
	.st0{enable-background:new    ;}
	.st1{fill:#FFFFFF;}
	.st2{fill:#ED4636;}
</style>
<g class="st0">
	<path class="st1" d="M43.9,101.3c-1.6,0-2.7,0.2-3.4,0.7c-0.7,0.4-1,1.3-1,2.5c0,1.5,0.5,3.9,1.5,7.5c0.8,3,1.2,5.7,1.2,8.3
		c0,6.6-2.6,11.6-7.8,15.1c5.2,3.5,7.8,8.6,7.8,15.1c0,2.5-0.4,5.3-1.2,8.3c-1,3.5-1.5,6-1.5,7.5c0,1.2,0.3,2.1,1,2.5
		c0.7,0.5,1.8,0.7,3.4,0.7v10.5c-4.4,0-8.7-0.7-12.7-2.1c-4.1-1.4-7.4-3.6-10-6.5c-2.6-2.9-3.9-6.5-3.9-10.8c0-1.7,0.3-3.6,0.8-5.8
		c0.6-2.3,0.9-4.5,0.9-6.6c0-2.3-0.4-4.1-1.3-5.4c-0.9-1.3-2.2-2-4.1-2v-10.6c1.9,0,3.2-0.7,4.1-2c0.9-1.3,1.3-3.2,1.3-5.4
		c0-1.9-0.3-4.1-1-6.6c-0.6-2.2-0.9-4.2-0.9-6c0-4.2,1.3-7.8,3.9-10.6c2.6-2.9,6-5,10.1-6.4c4.1-1.4,8.3-2.1,12.7-2.1V101.3z"/>
	<path class="st1" d="M613.9,122.6c0,2.3,0.4,4.1,1.3,5.4c0.9,1.3,2.3,2,4.1,2v10.6c-1.9,0-3.2,0.7-4.1,2c-0.9,1.3-1.3,3.2-1.3,5.4
		c0,2.1,0.3,4.4,0.9,6.6c0.6,2.2,0.8,4.1,0.8,5.8c0,4.3-1.3,7.9-3.9,10.8c-2.6,2.9-5.9,5.1-10,6.5c-4.1,1.4-8.3,2.1-12.7,2.1v-10.5
		c1.6,0,2.7-0.2,3.4-0.7c0.7-0.4,1-1.3,1-2.5c0-1.5-0.5-3.9-1.5-7.5c-0.8-3-1.2-5.8-1.2-8.3c0-6.6,2.6-11.6,7.8-15.1
		c-5.2-3.5-7.8-8.6-7.8-15.1c0-2.6,0.4-5.3,1.2-8.3c1-3.5,1.5-6,1.5-7.5c0-1.2-0.3-2.1-1-2.5c-0.7-0.4-1.8-0.7-3.4-0.7V90.8
		c4.4,0,8.7,0.7,12.7,2.1c4.1,1.4,7.4,3.6,10.1,6.4c2.6,2.9,3.9,6.4,3.9,10.6c0,1.8-0.3,3.8-0.9,6
		C614.2,118.5,613.9,120.7,613.9,122.6z"/>
</g>
<g>
	<path class="st2" d="M103.4,153.5v2.8l14.5-0.9v17.9c-25.2,1.6-44.4,2.7-57.7,3.3c-0.3-3.6-0.9-6.8-1.5-9.7c-0.7-2.9-1.8-5.9-3.4-9
		c4.8,0,11.8-0.1,21.1-0.4v-4H58.7V137h17.7v-2.9h26.9v2.9h12.7v16.6L103.4,153.5L103.4,153.5z M183.7,100v21.3h-5.3v41.3
		c0,4.2-1.1,7.2-3.3,9.1c-2.2,1.9-5.6,3.2-10.3,3.8c-4.7,0.6-11.8,0.9-21.5,0.9h-18.6c-0.2-4.9-0.7-9.3-1.4-13.1
		c-0.8-3.8-2.4-6.9-4.9-9.5c10.6,0.7,18.4,1.1,23.5,1.1c4.1,0,6.8-0.2,8.1-0.8c1.2-0.5,1.9-1.4,1.9-2.7v-7.6l-20.5,8.8
		c-4.6-7-10.3-13.7-17-20H59v-15.8h17.4v-3.3H58.2V98.6h18.2v-5.2h26.9v5.2H117v14.8h-13.6v3.3h13.1v13l17.6-7.6
		c6.7,6.4,12.6,13.2,17.7,20.3v-21.2h-32.1V100h32.1v-6.6h26.7v6.6L183.7,100L183.7,100z"/>
	<path class="st2" d="M418.1,97.5h27.3v68.2h-25.9v-2.8h-1.5v13.6h-26.9v-13.6h-1.6v2.8h-25.6v-17.1l-3.7,5.5l-4.1-8.8v31.2h-27.2
		v-15.3l-6.5,5.1c-0.4-5.4-1.1-10.1-1.9-14.1c-0.8-4-2.1-8-3.9-11.9c6.7-4.4,12.9-10.8,18.8-19.1h-13.7v-20.9h7.3V94h27.2v6.2h5v23
		l-2.8,4.6l5.5,3.3V97.5h27.2v-3.7h26.9L418.1,97.5L418.1,97.5z M393.2,122v-7.3h-3.7v7.3H393.2z M393.2,137.6h-3.7v7h3.7V137.6z
		 M415.2,122h4.4v-7.3h-4.4V122z M415.2,137.6v7h4.4v-7H415.2z"/>
	<path class="st2" d="M577.2,158.9l-4.8-1v18.2h-23.1V175h-7.7v1.1h-23.4v-31.9h9.2c-4.1-1.9-8.1-4.2-11.9-6.7
		c-3.4,2.5-7.1,4.7-11.1,6.7h9.8v31.9H491V175h-7.7v1.1h-23.1V158l-5.5,1c-0.5-6.8-2.3-13.2-5.4-19.2c15.8-0.4,28.3-1.4,37.5-3
		h-34.5v-14.2h49.6l-0.1-2.4h-44.2V95.3h56.5V119h4.5V95.3h56.5v24.9h-44.8l-1.2,2.4h51.2v14.2H548c10.7,1.6,22.5,2.6,35.4,3
		C580.1,145.6,578.1,152,577.2,158.9L577.2,158.9z M482.4,110.1h6.6v-4.3h-6.6V110.1z M483.3,157.6v4h7.7v-4H483.3z M541.7,157.6v4
		h7.7v-4H541.7z M550.2,105.8h-6.6v4.3h6.6V105.8z"/>
	<g>
		<path class="st2" d="M312.1,103.8c0.3-1,0.5-2.1,0.7-3.2s0.5-2.4,0.7-3.7l-17.4-1.5c-0.2,1.9-0.8,5.6-1.9,11l-0.7,3.6h17.2
			L312.1,103.8L312.1,103.8z"/>
		<polygon class="st2" points="205.2,141.8 191.6,142.4 194,156.6 206.6,156 		"/>
		<path class="st2" d="M302.2,161.2h12.1V112h-21.3V94.2h-22.9V112h-20.5v42.5c-5.4,0.8-11.4,1.5-18.2,2.1v-16.2h15.2v-11.3h-15.2
			v-1.8h12.1v-5.2l2,1c1.8-6.1,3.9-11.3,6.3-15.6c0.2,0.4,0.4,1.2,0.5,2.4h17.2c-1.1-5.7-1.9-10.5-2.5-14.5L250,96.9l1.4,6.9
			c-8.8-1.3-15.3-2.9-19.5-4.9c0.6-0.9,1.5-2.5,2.8-4.6h-23.5c-5.3,7.2-14.3,11.7-27.1,13.2c1.9,2.9,3.4,5.9,4.4,8.8
			s1.9,6.5,2.6,10.8l5.3-2.5v2.8h12.3v1.8h-15.9v11.3h15.9v17.7c-6.9,0.2-14,0.3-21.5,0.3c1.5,2.4,2.9,5.2,4.2,8.6
			c1.3,3.4,2.3,6.7,3.1,9.9c17-0.9,33.9-2.6,50.8-5.1c3.6,1.7,7.2,3.7,10.8,5.8c11.1-2.9,20.3-6.1,27.7-9.8
			c5.8,3.3,11.2,6.6,16.2,9.8c3.3-1.9,6.2-3.6,9-4.8s6.1-2.7,10-4.2C315.5,167.3,309.9,164.8,302.2,161.2L302.2,161.2z M215.5,114.2
			c1.9-1.2,3.9-2.7,6.2-4.5c1.6,1.2,3.9,2.7,6.9,4.5H215.5L215.5,114.2z M278.7,120.7l-9.7,9.7v-9.7H278.7z M250.5,165.7l-0.4-4.5
			h15C261.3,162.7,256.4,164.2,250.5,165.7L250.5,165.7z M269,146.8l26.1-26.2v5l-23.6,23.6H269V146.8L269,146.8z M284,163.7l-7-2.6
			h13.9L284,163.7z M288,149.2l7.1-7.1v7.1H288z"/>
		<polygon class="st2" points="233.2,154.3 246,154.7 247.1,142.2 234.8,141.8 		"/>
	</g>
</g>
<g>
	<path class="st1" d="M173.7,47.1h4.4v34.7h-21.7v-1.4h-32.6v1.4h-21.7V47.1h63.6l-4.2-4.6l-62.2,3.2c-0.1-1.1-0.2-2-0.4-2.6
		c-0.8-6.6-1.6-11.7-2.5-15.4l12.1-0.3l9.6-16.1l24.7,1.6l-7.8,14l14-0.4c-2.1-3-4.2-6.6-6.4-10.8l19.5-4.2
		c3.6,5.2,7.4,9.6,11.4,13.2c4,3.6,7.8,6.6,11.4,9C181.6,36.5,177.9,40.9,173.7,47.1L173.7,47.1z M123.8,60.8V65h32.6v-4.2H123.8z"
		/>
	<path class="st1" d="M230.9,65.2h42.3c0,2.7-0.1,5.1-0.4,7.4c-0.2,3.3-1.9,5.7-5,7.1c-3.1,1.4-7.6,2.1-13.5,2.1h-25.4
		c-0.4-2-1.1-3.9-2.1-5.6c-7.5-1-14.2-1.6-20.2-1.6c2.2-5.6,3.6-10.7,4.4-15.2h37.6v-1.1h-40.3v-3.9l-0.5,2.8
		c-2.4,12.4-4.1,20.7-5.1,24.9c-7.8-1.9-13.8-3.3-17.9-3.9c1.9-5.2,3.4-10.3,4.6-15.1s2.4-10.1,3.5-15.8l6.1,1
		c-3.8-2.1-8.3-3.8-13.4-5.2l8.4-14c2.9,0.9,6.5,2.4,11,4.6l3,1.4c0-1.9-0.1-4.1-0.4-6.7l3.8-0.2l1.4-1.5c-1.1-1.2-2.3-2.5-3.8-3.9
		l-4.1,8.8c-6.2-2.9-12.7-5.1-19.4-6.4l7.7-14.6c2.6,0.7,6.5,2.1,11.6,4.2l4.6,1.8l1.3-2.7l1.2,1.1c1.1-1.7,1.9-3.3,2.5-4.8l7,2
		l-4.9,7.5l1.1,1.2c2.2-3.1,4.3-6.4,6.1-10l5.7,1.8h23.6v4.9h-23.6v-2.4l-1.5,2.2c-0.8,1.3-1.6,2.5-2.5,3.7l2.2-0.4
		c0.2,1.6,0.4,3.3,0.7,4.9c0.3,1.6,0.5,2.8,0.6,3.6c0.5,2.8,0.8,4.7,0.9,5.8l-5,0.7l-0.2-1.5l-1.4,0.3l-0.4,16.4h-8.6l0.3-15.2
		L210,36l-0.7,1.4l3.4-0.1v2.9c0,3.5-0.2,7-0.5,10.4c-0.5-0.1-0.9-0.1-1.4-0.2s-1-0.1-1.6-0.1l-0.3,1.5h62.1v12.4h-40L230.9,65.2
		L230.9,65.2z M202.7,48.9l4.9,0.8c0.4-2.1,0.7-4,0.8-5.6c0.1-1.6,0.2-3.4,0.2-5.6L202.7,48.9L202.7,48.9z M220.3,27.9l2.9-0.2
		c-0.1-0.7-0.2-1.7-0.4-3.2L220.3,27.9L220.3,27.9z M223.8,37.1l4.6-0.3c0,5.5,0.1,9.8,0.2,13c-0.8,0.2-2.3,0.4-4.5,0.5
		C223.9,45,223.8,40.5,223.8,37.1L223.8,37.1z M253.1,19l2.3-5.1l1.2,1.1c1.1-1.7,1.9-3.3,2.5-4.8l7,2c-2.2,3.4-3.9,5.9-5,7.4
		l1.1,1.3c2.2-3,4.3-6.3,6.2-10l5.8,3.1l-4.9,7.3l2.9-0.5c0.5,4.6,1.1,8.6,1.8,12.1l0.4,2.1l-5,0.7l-0.2-1.5l-1.4,0.3l-0.4,16.4
		h-8.6l0.3-15.2c-0.6,0.1-2.7,0.3-6.4,0.6c0-3.1-0.2-5.7-0.5-7.9l4.2-0.2l1.3-1.4c-1.2-1.5-2.7-3-4.4-4.7v2.2h-24.5V19L253.1,19
		L253.1,19z M229.2,71l-0.4,1c5.5,0.2,12,0.3,19.7,0.3c1.3,0,2.2-0.1,2.8-0.2s0.8-0.5,0.9-1.1L229.2,71L229.2,71z M251.9,50.8h-22.1
		V39h22.1L251.9,50.8L251.9,50.8z M230.4,26h20.8v5h-20.8V26z M251.3,37.4h-20.8v-4.9h20.8V37.4z M243.2,44h-4.8v2.2h4.8V44z
		 M253.5,37.4l4.1-0.1v2.9c0,3.5-0.2,7-0.5,10.4c-2.4-0.2-3.8-0.4-4.2-0.4C253.3,46.4,253.5,42.1,253.5,37.4L253.5,37.4z
		 M267.6,23.9l-2.5,4c0.8,0,1.9-0.1,3.1-0.2L267.6,23.9L267.6,23.9z M273.2,36.8c0,2.4,0.1,4.5,0.2,6.2s0.3,4,0.6,6.7
		c-2.9,0.4-4.6,0.6-5,0.6c-0.2-5.4-0.3-9.9-0.3-13.3C268.7,37.1,273.2,36.8,273.2,36.8z"/>
	<path class="st1" d="M364.6,58.9c-1.9,1.9-3.6,4-5.1,6.3s-3.1,5.1-5,8.4l-1.9,3.3c-3.7-1.2-7.4-3.3-11.2-6.2s-7.2-6.4-10.3-10.5v5
		c0,5.7-0.6,9.6-1.8,11.7c-1.2,2.2-3.6,3.5-7.1,4.1c-3.5,0.6-10,0.8-19.5,0.8c-0.8-3.9-1.4-6.9-1.9-9.1s-1.2-4.4-2-6.7
		c-5.5,4.1-10.9,7.4-16.1,9.9c-3.1-6.6-6.5-12.4-10.4-17.2c7-1.5,13.1-3.6,18.1-6.2c5.1-2.6,11.2-6.8,18.3-12.6l2.1,4.9V33.5h-17.2
		c3.8,2.2,7.6,4.8,11.4,7.7l-12.3,9.1c-1.9-1.4-4-2.8-6.3-4.2c-2.3-1.4-5.4-3-9.1-4.9l9.5-7.8h-6.6V15.9h30.7v-3.5h20.3v3.5h5.3
		l3.2-4.5c3.5,1.1,7,2.6,10.5,4.5h10.4v17.6h-13.6L362.6,44c-4.6,4-9,7.3-13.3,10.1C352.6,55.7,357.7,57.2,364.6,58.9L364.6,58.9z
		 M307.4,62.1c1.4,0,2.4-0.1,2.8-0.3s0.6-0.7,0.6-1.4V56c-1.9,1.9-4.2,3.9-6.9,6C304.9,62.1,306,62.1,307.4,62.1L307.4,62.1z
		 M331.1,33.5v1.4c1,3.3,2.3,6,4,8c3.9-3.2,7.2-6.3,9.8-9.4H331.1z"/>
	<path class="st1" d="M453.5,63.2c0,3.2-0.2,6.1-0.5,8.8c-0.5,4-1.2,6.6-2.3,8s-2.6,2.1-4.7,2.1c-1.9,0-3.8-0.7-5.9-2
		s-4-3.4-5.9-6.4c-1.2,1.7-2.5,3.2-3.7,4.6c-1.3,1.3-2.8,2.7-4.6,3.9l-1.6-2.3h-14.5v0.9H397V45.9h27.7v18.4c1-0.7,2.3-1.7,4-3.2
		c-1.6-5.1-2.8-10.7-3.6-16.9h-29.4v38.1h-13.3v-2.7l-14.5,2.7c-0.4-5.9-1-11.3-2.1-16.2l3.1-0.3v-39H367V13.7h29.7v13.2h-1v5.6h3.2
		l-0.3-4.5h-1.1V14.5h5.8v-2.7H417v2.7h5.2v13.4h-2l-0.4,4.5h4.1c-0.2-3.6-0.4-8.1-0.4-13.3c0-3.3,0-5.8,0.1-7.6H438
		c-0.1,1-0.1,2.5-0.1,4.5c2.5-1.3,4.6-2.6,6.1-3.8c1.1,1.5,2.4,3.3,3.6,5.4s2.5,4.2,3.7,6.2l1.9,3.3c-2.2,0.7-4.6,1.8-7.2,3.5h5.9
		v13.7h-6.1l1.4,1.8l-0.9,2.6c2,1.8,4.2,3.2,6.8,4.1C453.4,57.3,453.5,60.8,453.5,63.2L453.5,63.2z M383.8,31.4v-4.6h-2.4v4.6H383.8
		z M383.8,43.3h-2.4v4.7h2.4V43.3z M383.8,59.7h-2.4v5l2.4-0.2C383.8,64.5,383.8,59.7,383.8,59.7z M411.2,27.9h-2.7l0.3,4.5h2.2
		L411.2,27.9L411.2,27.9z M412.8,58.3v-3.5h-3.2v3.5H412.8z M409.6,65.8v3.7h3.2v-3.7H409.6z M437.9,30.6h3.6l-3.7-6.1
		C437.8,27.3,437.8,29.3,437.9,30.6z M439,44.3c-0.1-0.5,0.1,0.8,0.6,4c0.6-1,1.3-2.3,2.2-4H439z M445.1,60.2c0-0.6-0.1-2.8-0.4-6.6
		c-0.7,2-1.2,3.5-1.7,4.7c0.8,2,1.4,3,1.9,3.2C445,61.5,445.1,61.1,445.1,60.2L445.1,60.2z"/>
	<path class="st1" d="M542.4,73.2c0,2.3-0.4,4-1.2,5.1c-0.8,1.1-2.2,1.8-4.1,2.2s-4.9,0.6-8.8,0.6l-5.8-0.1
		c-0.4-2.4-0.8-4.3-1.3-5.8h-2c-0.8,0.1-2.6,0.1-5.3,0.1c-1.7,0-3-0.7-3.9-2s-1.3-2.8-1.3-4.4v-8.4h-1.9v-12h4.1v-2.3h-4.3V35.4h1.8
		l-0.5-3.6l8.1-0.4l0.5,4h1.1c0.1-1,0.2-2.4,0.4-4.2l8.2,0.4l-0.5,3.8h1.2v10.9h-4v2.3h3.9v12h-6.1v0.6c0,0.8,0.1,1.5,0.2,1.8
		c0.2,0.3,0.5,0.5,1,0.5c1.2,0,2.5-0.3,4-0.8c-0.2,0.7-0.4,1.9-0.6,3.6c1.1-0.1,1.8-0.2,2.2-0.4c0.4-0.2,0.6-0.5,0.6-0.9V29.8h-22.5
		V81h-14.2v-3l-4.2,0.6l-4.3,0.6c-0.3-7.8-0.5-15.9-0.5-24.2l7.9-0.5c0,4.5,0.1,8.3,0.2,11.5c0.1,3.1,0.4,6.4,0.9,9.9V52l-8.8,1.4
		l-0.2-1.8c-0.4,0-0.9,0.1-1.6,0.2v30.1h-13.5V53.6c-3.2,0.4-6.6,0.8-10.3,1.1c0-5.5-0.3-10-0.8-13.4l5.7-0.2l2.4-3
		c-2.7-3.3-5.5-6.3-8.6-9l5.2-12.5l1.9,1.9c1.4-2.3,2.8-5.1,4.1-8.3l12.1,3.3c-3.4,5.5-6.2,9.9-8.4,13.1c0.6,0.8,0.9,1.2,1,1.3
		c3.5-5.3,6.8-10.8,9.9-16.6l9.8,3.3v-0.3h51.1L542.4,73.2L542.4,73.2z M462.6,55.5l3.1-0.1v2.9c0,4.1-0.1,7.7-0.2,10.8
		c-0.1,3.1-0.5,6.6-1,10.4c-0.5-0.1-1.5-0.2-3.1-0.4c-1.6-0.2-3.4-0.3-5.5-0.3c0.8-4,1.4-7.6,1.6-10.9c0.2-3.2,0.3-7.3,0.3-12.3
		C458.9,55.7,460.5,55.6,462.6,55.5L462.6,55.5z M480.8,40.4l-0.6-4.2l-3.1,4.4L480.8,40.4z M491.3,19.3l-2.6,4l-3.8,5.7l3.5-0.5
		l1.6,9.8c0.4,1.8,0.8,4.2,1.3,7.2L491.3,19.3L491.3,19.3z"/>
</g>
</svg>
