<?xml version="1.0" encoding="utf-8"?>
<!-- Generator: Adobe Illustrator 27.0.0, SVG Export Plug-In . SVG Version: 6.00 Build 0)  -->
<svg version="1.1" id="Layer_1" xmlns="http://www.w3.org/2000/svg" xmlns:xlink="http://www.w3.org/1999/xlink" x="0px" y="0px"
	 viewBox="0 0 106.1 27" style="enable-background:new 0 0 106.1 27;" xml:space="preserve">
<style type="text/css">
	.st0{fill:#B1B1B1;}
	.st1{fill:#626464;}
	.st2{fill:#909090;}
	.st3{fill:#E50012;}
	.st4{fill:#231815;}
	.st5{fill:#FFFFFF;}
</style>
<path class="st0" d="M14.2,18.3h-3.6v7.3h3.6V18.3z"/>
<path class="st1" d="M39.6,18.3h-3.7v7.3h3.7C39.6,25.6,39.6,18.3,39.6,18.3z"/>
<path class="st2" d="M26.8,18.3h-3.6v7.3h3.6V18.3z"/>
<path d="M106.1,18.3H48.7v7.3h57.4V18.3z"/>
<path class="st3" d="M38.4,3.5c0,0-0.5,0.1-0.5,0.3c0,0.2,0,3.7,0,3.7s-0.1,0.1,0.2,0.1c0.3,0,1.8-0.1,2.3,1.4
	c0.2,1.7,0.1,1.7,0.1,1.7V27h7V0h-4.1C43.4,0,41.3,2.5,38.4,3.5z M25.9,3.5c0,0-0.5,0.1-0.5,0.3c0,0.2,0,3.7,0,3.7s-0.1,0.1,0.2,0.1
	s1.9-0.1,2.3,1.4c0.2,1.7,0.1,1.7,0.1,1.7V27h7V0h-4.1C30.8,0,28.8,2.5,25.9,3.5L25.9,3.5z M13.1,3.5c0,0-0.5,0.1-0.5,0.3
	c0,0.2,0,3.7,0,3.7s-0.1,0.1,0.2,0.1c0.3,0,1.9-0.1,2.3,1.4c0.2,1.7,0.1,1.7,0.1,1.7V27h7V0h-4.1C18.1,0,16.1,2.5,13.1,3.5z
	 M0.5,3.5c0,0-0.5,0.1-0.5,0.3C0,4,0,7.4,0,7.4s-0.1,0.1,0.2,0.1c0.3,0,1.8-0.1,2.3,1.4c0.2,1.7,0.1,1.7,0.1,1.7V27h7V0H5.5
	C5.5,0,3.4,2.5,0.5,3.5L0.5,3.5z"/>
<path class="st4" d="M58.6,4.5c0,0.5,0,1.2-0.1,2c0.2,1.7,1,7.2,5.8,9.3c-0.4,0.3-0.7,0.7-0.9,1.1c-3.2-1.5-4.7-4.5-5.4-7
	c-0.7,2.6-2.1,5.3-5.2,7c-0.2-0.3-0.6-0.7-1-1c5.5-2.9,5.4-9.3,5.4-11.5L58.6,4.5L58.6,4.5z M76.7,7.3c0,0,0,0.5,0,0.6
	c-0.3,5.5-0.6,7.6-1.2,8.3c-0.4,0.4-0.7,0.6-1.2,0.6c-0.5,0.1-1.4,0-2.2,0c-0.1-0.5-0.2-0.9-0.4-1.3c0.9,0.1,1.7,0.1,2.1,0.1
	c0.3,0,0.5,0,0.6-0.2c0.5-0.4,0.7-2.3,1-6.8h-4.2c-0.2,2.8-1.1,6.1-5,8.4c-0.2-0.3-0.7-0.8-1-1c3.5-2,4.4-4.9,4.6-7.4h-4.2V7.3h4.3
	V4.5h1.3v2.9L76.7,7.3L76.7,7.3L76.7,7.3z M83.4,14.3l0.1,1.1c-1.7,0.4-3.6,0.9-4.9,1.2l-0.3-1.2c0.6-0.1,1.3-0.3,2.2-0.4v-3.6h-2
	v-1.1h2V8.9h-1.3V8.3c-0.2,0.2-0.4,0.3-0.6,0.5c-0.1-0.3-0.4-0.9-0.5-1.2c1.1-0.7,2.2-1.9,2.9-3.1l1,0.4c-0.1,0.1-0.2,0.3-0.3,0.5
	c0.8,0.6,1.6,1.3,2.1,1.9L83.1,8c-0.5-0.5-1.2-1.2-1.9-1.9c-0.4,0.6-0.9,1.2-1.5,1.7h3.1v1.1h-1.3v1.3h1.8v1.1h-1.8v3.4
	C81.5,14.7,83.4,14.3,83.4,14.3z M79.6,11.9c0.3,0.8,0.5,1.8,0.6,2.4l-0.9,0.3c-0.1-0.7-0.3-1.7-0.5-2.5L79.6,11.9L79.6,11.9z
	 M81.8,14.1c0.2-0.8,0.4-1.6,0.6-2.4l0.9,0.3c-0.3,0.8-0.5,1.8-0.8,2.4L81.8,14.1L81.8,14.1z M90.5,12.3c-0.6,0.5-1.3,1-2,1.4
	c0.6,0.9,1.3,1.6,2.2,2.1c-0.3,0.2-0.7,0.7-0.9,1.1c-1.8-1.1-2.9-3.2-3.6-5.7h-0.9v4.1l2-0.6c0,0.3,0.1,0.8,0.1,1.1
	c-2.8,0.8-3.2,1-3.5,1.2c-0.1-0.3-0.3-0.8-0.4-1.1c0.3-0.1,0.5-0.3,0.5-0.8V5H90v6.1h-2.6c0.2,0.6,0.4,1.1,0.6,1.7
	c0.6-0.4,1.2-0.9,1.7-1.4L90.5,12.3L90.5,12.3z M85.3,6.1v1.4h3.5V6.1C88.8,6.1,85.3,6.1,85.3,6.1z M85.3,10h3.5V8.5h-3.5
	C85.3,8.5,85.3,10,85.3,10z M96.1,7.8c-0.4,0.7-0.9,1.4-1.5,2.1V17h-1.3v-5.7c-0.4,0.5-0.9,0.9-1.3,1.2c-0.3-0.4-0.5-0.8-0.9-1.1
	c1.4-1,2.8-2.6,3.8-4.1L96.1,7.8L96.1,7.8z M95.6,4.9c-0.9,1.2-2.3,2.6-3.6,3.5c-0.2-0.4-0.4-0.7-0.7-1c1.1-0.7,2.4-2,3.1-2.9
	L95.6,4.9L95.6,4.9z M103.7,10.2h-2v5.3c0,0.7-0.2,1.1-0.7,1.3c-0.5,0.2-1.3,0.2-2.6,0.2c-0.1-0.4-0.2-0.9-0.4-1.3c0.9,0,1.8,0,2,0
	c0.3,0,0.3-0.1,0.3-0.3v-5.3h-4.3V9h7.5L103.7,10.2C103.7,10.2,103.7,10.2,103.7,10.2z M103.4,6.4h-6.6V5.2h6.6
	C103.4,5.2,103.4,6.4,103.4,6.4z"/>
<path class="st5" d="M52.8,24.1l-1-3.1h0.6l0.5,1.8l0.2,0.7l0.2-0.6l0.5-1.8h0.6l0.5,1.8l0.2,0.6l0.2-0.6l0.6-1.8h0.5l-1,3.1h-0.6
	l-0.5-1.8l-0.1-0.5l-0.7,2.4L52.8,24.1L52.8,24.1z M57.4,24.1l-1-3.1H57l0.5,1.8l0.2,0.7l0.2-0.6l0.5-1.8H59l0.5,1.8l0.2,0.6
	l0.2-0.6l0.6-1.8H61l-1,3.1h-0.6l-0.5-1.8l-0.1-0.5L58,24.1C58,24.1,57.4,24.1,57.4,24.1z M62,24.1L61,21h0.6l0.5,1.8l0.2,0.7
	l0.2-0.6L63,21h0.6l0.5,1.8l0.2,0.6l0.2-0.6L65,21h0.5l-1,3.1h-0.6l-0.5-1.8l-0.1-0.5l-0.7,2.4C62.6,24.1,62,24.1,62,24.1z
	 M66.1,24.1v-0.6h0.6v0.6L66.1,24.1L66.1,24.1z M69.8,24.1h-0.6v-3.3c-0.1,0.1-0.3,0.2-0.5,0.4c-0.2,0.1-0.4,0.2-0.6,0.3v-0.5
	c0.3-0.1,0.6-0.3,0.8-0.5c0.2-0.2,0.4-0.4,0.5-0.6h0.4L69.8,24.1C69.8,24.1,69.8,24.1,69.8,24.1z M73.3,24.1h-0.6v-3.3
	c-0.1,0.1-0.3,0.2-0.5,0.4c-0.2,0.1-0.4,0.2-0.6,0.3v-0.5c0.3-0.1,0.6-0.3,0.8-0.5c0.2-0.2,0.4-0.4,0.5-0.6h0.4
	C73.3,19.8,73.3,24.1,73.3,24.1z M76.9,24.1h-0.6v-3.3c-0.1,0.1-0.3,0.2-0.5,0.4c-0.2,0.1-0.4,0.2-0.6,0.3v-0.5
	c0.3-0.1,0.6-0.3,0.8-0.5c0.2-0.2,0.4-0.4,0.5-0.6h0.4L76.9,24.1C76.9,24.1,76.9,24.1,76.9,24.1z M80.4,24.1h-0.6v-3.3
	c-0.1,0.1-0.3,0.2-0.5,0.4c-0.2,0.1-0.4,0.2-0.6,0.3v-0.5c0.3-0.1,0.6-0.3,0.8-0.5c0.2-0.2,0.4-0.4,0.5-0.6h0.4
	C80.4,19.8,80.4,24.1,80.4,24.1z M82.2,24.1v-0.6h0.6v0.6L82.2,24.1L82.2,24.1z M86,23l0.6,0.1c-0.1,0.4-0.2,0.6-0.5,0.8
	s-0.6,0.3-0.9,0.3c-0.5,0-0.8-0.1-1.1-0.4c-0.3-0.3-0.4-0.7-0.4-1.2c0-0.3,0.1-0.6,0.2-0.9c0.1-0.2,0.3-0.4,0.5-0.6
	c0.2-0.1,0.5-0.2,0.8-0.2c0.4,0,0.7,0.1,0.9,0.3c0.2,0.2,0.4,0.4,0.4,0.7L86,22c0-0.2-0.1-0.3-0.3-0.5c-0.1-0.1-0.3-0.2-0.5-0.2
	c-0.3,0-0.5,0.1-0.7,0.3c-0.2,0.2-0.3,0.5-0.3,0.9c0,0.4,0.1,0.7,0.3,0.9c0.2,0.2,0.4,0.3,0.7,0.3c0.2,0,0.4-0.1,0.6-0.2
	C85.9,23.4,86,23.2,86,23z M86.8,22.6c0-0.6,0.2-1,0.5-1.3c0.3-0.2,0.6-0.3,1.1-0.3c0.5,0,0.8,0.1,1.1,0.4c0.3,0.3,0.4,0.7,0.4,1.1
	c0,0.4-0.1,0.7-0.2,0.9c-0.1,0.2-0.3,0.4-0.6,0.5c-0.3,0.1-0.5,0.2-0.8,0.2c-0.5,0-0.8-0.1-1.1-0.4C87,23.5,86.8,23.1,86.8,22.6
	L86.8,22.6z M87.4,22.6c0,0.4,0.1,0.7,0.3,0.9c0.2,0.2,0.4,0.3,0.7,0.3c0.3,0,0.5-0.1,0.7-0.3c0.2-0.2,0.3-0.5,0.3-0.9
	c0-0.4-0.1-0.7-0.3-0.9c-0.2-0.2-0.4-0.3-0.7-0.3c-0.3,0-0.5,0.1-0.7,0.3C87.5,21.9,87.4,22.2,87.4,22.6z M90.6,24.1V21h0.5v0.4
	c0.1-0.2,0.3-0.3,0.4-0.4c0.2-0.1,0.4-0.1,0.6-0.1c0.2,0,0.4,0,0.6,0.1c0.2,0.1,0.3,0.2,0.3,0.4c0.3-0.4,0.6-0.5,1-0.5
	c0.3,0,0.6,0.1,0.8,0.3c0.2,0.2,0.3,0.4,0.3,0.8v2.1h-0.6v-1.9c0-0.2,0-0.4-0.1-0.5c0-0.1-0.1-0.2-0.2-0.2c-0.1-0.1-0.2-0.1-0.3-0.1
	c-0.2,0-0.4,0.1-0.6,0.2c-0.2,0.1-0.2,0.4-0.2,0.7v1.8h-0.6v-2c0-0.2,0-0.4-0.1-0.5c-0.1-0.1-0.2-0.2-0.5-0.2c-0.2,0-0.3,0-0.4,0.1
	c-0.1,0.1-0.2,0.2-0.3,0.3c-0.1,0.1-0.1,0.4-0.1,0.6v1.6L90.6,24.1C90.6,24.1,90.6,24.1,90.6,24.1z M96,24.1v-0.6h0.6v0.6L96,24.1
	L96,24.1z M98.9,23.6l0.1,0.5c-0.2,0-0.3,0-0.4,0c-0.2,0-0.4,0-0.5-0.1c-0.1-0.1-0.2-0.1-0.2-0.2c0-0.1-0.1-0.3-0.1-0.6v-1.8h-0.4
	V21h0.4v-0.8l0.6-0.3V21h0.6v0.4h-0.6v1.8c0,0.1,0,0.2,0,0.3c0,0,0.1,0.1,0.1,0.1c0,0,0.1,0,0.2,0C98.7,23.7,98.8,23.6,98.9,23.6z
	 M100.1,24.1l-1-3.1h0.6l0.5,1.8l0.2,0.7l0.2-0.6l0.5-1.8h0.6l0.5,1.8l0.2,0.6l0.2-0.6l0.6-1.8h0.6l-1.1,3.1h-0.6l-0.5-1.8l-0.1-0.5
	l-0.7,2.4C100.7,24.1,100.1,24.1,100.1,24.1z"/>
</svg>
