<svg width="112" height="32" viewBox="0 0 112 32" fill="none" xmlns="http://www.w3.org/2000/svg">
<g clip-path="url(#clip0_2203_2463)">
<path d="M32 13.2838V32C21.3333 30.861 10.6667 29.7181 0 28.5752V9.87429C0 9.87429 0 9.87048 0.00380952 9.86667C1.82476 5.77524 6.84571 2.26667 13.7181 0L32 13.2838Z" fill="#13AB67"/>
<path d="M58.4039 20.6095L61.1258 23.3314C59.2515 25.2057 56.6553 26.3676 53.7944 26.3676C48.0687 26.3676 43.4268 21.7257 43.4268 15.9999C43.4268 10.2742 48.0687 5.63232 53.7944 5.63232C56.6553 5.63232 59.2496 6.79423 61.1258 8.66851L58.4039 11.3904C57.2249 10.2114 55.5963 9.48375 53.7944 9.48375C50.1963 9.48375 47.2782 12.4018 47.2782 15.9999C47.2782 19.598 50.1963 22.5161 53.7944 22.5161C55.5944 22.5161 57.2249 21.7866 58.4039 20.6095Z" fill="#13AB67"/>
<path d="M74.5296 11.5561V12.7999C73.3182 11.6533 71.6953 10.9637 69.7906 10.9637C65.5372 10.9637 62.0896 14.4114 62.0896 18.6647C62.0896 22.918 65.5372 26.3656 69.7906 26.3656C71.6953 26.3656 73.3182 25.6761 74.5296 24.5295V25.7733H78.0839V11.5561H74.5296ZM69.7906 22.8133C67.501 22.8133 65.6439 20.9599 65.6439 18.6666C65.6439 16.3733 67.501 14.5199 69.7906 14.5199C72.0801 14.5199 73.9372 16.3771 73.9372 18.6666C73.9372 20.9561 72.0801 22.8133 69.7906 22.8133Z" fill="#13AB67"/>
<path d="M111.851 20.1466C111.949 19.6723 112 19.1752 112 18.6647C112 14.4114 108.92 10.9637 104.151 10.9637C99.381 10.9637 96.301 14.4114 96.301 18.6647C96.301 22.918 99.8172 26.3656 104.151 26.3656C106.973 26.3656 109.493 25.5333 111.151 23.8856L108.749 21.4837C107.827 22.4666 106.29 23.0323 104.152 23.0323C102.015 23.0323 100.61 21.8304 100.13 20.1447H111.853L111.851 20.1466ZM104.151 14.2971C106.345 14.2971 107.693 15.5028 108.173 17.1847H100.128C100.608 15.5028 101.958 14.2971 104.151 14.2971Z" fill="#13AB67"/>
<path d="M96.4134 25.7752H91.4096L85.1925 19.558V25.7752H81.6382V5.64185C82.8229 5.76946 84.0077 5.89327 85.1925 6.02089V17.1885L90.8229 11.558H95.8268L89.0115 18.3733L96.4134 25.7752Z" fill="#13AB67"/>
</g>
<defs>
<clipPath id="clip0_2203_2463">
<rect width="112" height="32" fill="white"/>
</clipPath>
</defs>
</svg>
