<svg xmlns="http://www.w3.org/2000/svg" width="100" height="38" viewBox="0 0 100 38">
    <g fill="none" fill-rule="evenodd">
        <g>
            <g>
                <g>
                    <g>
                        <path fill="#FFEB50" d="M56.73 5.958c-.237-.375-.521-.704-.806-1.032l-.237-.235c-.095-.093-.142-.187-.237-.281l-.095-.094-.094-.094c-.048-.047-.095-.094-.19-.14-.38-.329-.758-.657-1.137-.939C47.346-1.5 35.166-.563 27.062 7.272l-.237.234c-4.55 4.504-6.161 10.837-4.787 16.608.332 1.36.806 2.72 1.47 4.034.852 1.642 1.942 3.19 3.317 4.55l.047.048c1.422 1.407 2.986 2.486 4.692 3.33 1.28.657 2.654 1.126 4.028 1.408 5.83 1.314 12.228-.235 16.73-4.738.095-.094.142-.188.237-.235 7.868-7.975 8.91-19.891 4.17-26.553z" transform="translate(-171 -54) translate(171) translate(0 37) translate(0 17)"/>
                        <g fill="#000" fill-rule="nonzero">
                            <path d="M96.682 10.837c1.375-.281 2.465-1.407 2.702-2.768l.19-1.126H85.83c-1.565 0-3.081 1.267-3.366 2.815l-.331 1.877h5.924l-1.517 8.444H81.8c-1.563 0-3.08 1.267-3.364 2.815l-.332 1.876h17.062c1.564 0 3.08-1.266 3.365-2.814l.332-1.877H91.28l1.516-8.444 3.886-.798zM68.815 20.079l.664-3.753 3.839-.798c1.374-.281 2.464-1.407 2.701-2.768l.19-1.125h-5.925l.853-4.692h-1.895c-1.564 0-3.08 1.267-3.365 2.815l-1.849 10.321-3.838.422c-1.47.141-2.797 1.36-3.034 2.815l-.284 1.501h16.114c1.564 0 3.08-1.266 3.365-2.815l.331-1.876h-7.867v-.047z" transform="translate(-171 -54) translate(171) translate(0 37) translate(0 17) translate(0 4.691)"/>
                            <g>
                                <g>
                                    <path d="M16.019.094H5.355c-1.564 0-3.08 1.266-3.364 2.815l-.095.469h4.976L.284 9.805h2.844c.853 0 1.706-.375 2.37-.985l5.545-5.395h1.564c1.564 0 3.08-1.267 3.365-2.815l.047-.516z" transform="translate(-171 -54) translate(171) translate(0 37) translate(0 17) translate(0 4.691) translate(24.17) translate(0 18.765)"/>
                                    <path d="M11.706 4.738c-.142 0-.332 0-.474.047L9.81 6.145l4.029 3.332c.047-.047.095-.094.095-.141.237-.376.426-.845.474-1.314 0-.14.047-.234.047-.328.142-1.69-1.043-2.956-2.749-2.956z" transform="translate(-171 -54) translate(171) translate(0 37) translate(0 17) translate(0 4.691) translate(24.17) translate(0 18.765)"/>
                                </g>
                                <g>
                                    <path d="M6.54.704H4.882c-.948 0-1.896.469-2.56 1.22-.284.375-.616.703-.758.938C1.09 3.565.711 4.269.379 5.067h1.659L6.54.704zM9.858 5.723l-.285 1.502h-3.98L12.795.188H10c-.853 0-1.706.375-2.37.985L.57 8.069c-.048.985.663 1.736 1.658 1.736h9.858l.048-1.736c.142-1.36-.853-2.346-2.275-2.346z" transform="translate(-171 -54) translate(171) translate(0 37) translate(0 17) translate(0 4.691) translate(24.17) translate(3.791 7.975)"/>
                                </g>
                                <path d="M33.886 3.94l.048-.234H30.71l.426-2.392h-.9c-1.327 0-2.607 1.079-2.844 2.392H24.74l1.28-2.392h-.948c-2.038 0-4.028 1.266-5.024 3.143l-3.317 6.286h2.275l-3.128 17.499h10.426c1.801 0 3.46-1.407 3.792-3.19l.047-.235H26.92l.617-3.612c1.8 0 3.46-1.407 3.791-3.19l.047-.235h-3.222l.616-3.612c1.8 0 3.46-1.408 3.791-3.19l.048-.235h-3.223L30 7.131c1.848 0 3.555-1.454 3.886-3.19zM23.65 24.77h-3.554v-.093c.332-1.924 2.227-3.519 4.17-3.519l-.616 3.612zm1.233-7.037h-3.555v-.093c.332-1.924 2.228-3.519 4.17-3.519l-.615 3.612zm1.28-7.037h-3.555v-.094c.331-1.923 2.227-3.518 4.17-3.518l-.616 3.612z" transform="translate(-171 -54) translate(171) translate(0 37) translate(0 17) translate(0 4.691) translate(24.17)"/>
                                <g>
                                    <path d="M.332 3.237l-.142.798h10.426c1.564 0 3.08-1.267 3.365-2.815l.142-.798H3.697C2.085.422.569 1.69.332 3.237z" transform="translate(-171 -54) translate(171) translate(0 37) translate(0 17) translate(0 4.691) translate(24.17) translate(5.687)"/>
                                    <g>
                                        <path d="M1.232 5.114L.758 5.3.38 4.035C-.047 2.627.806.938 2.37.28l.475-.187.379 1.266c.426 1.361-.474 3.05-1.99 3.754zM5.118 5.114l-.473.187-.38-1.266C3.84 2.627 4.692.938 6.255.28L6.73.094l.379 1.266c.427 1.361-.474 3.05-1.99 3.754zM9.005 5.114L8.53 5.3l-.38-1.266C7.726 2.627 8.579.938 10.143.28l.474-.187.38 1.266c.426 1.361-.475 3.05-1.991 3.754z" transform="translate(-171 -54) translate(171) translate(0 37) translate(0 17) translate(0 4.691) translate(24.17) translate(5.687) translate(.948 2.346)"/>
                                    </g>
                                </g>
                            </g>
                            <g>
                                <path d="M11.99 5.114l-2.417 13.51L7.867 19c-.568.14-1.042.516-1.28 1.079l-1.516 3.8H9.1c2.606 0 5.118-2.111 5.592-4.691L18.057.422h-.474c-2.654 0-5.119 2.111-5.592 4.692zM7.204 7.928H6.73c-2.607 0-5.119 2.112-5.593 4.692l-1.09 6.099c-.047.281.143.469.38.469h2.796c.758 0 1.469-.563 1.659-1.314l2.322-9.946zM25.877 6.99c-2.607 0-5.119 2.111-5.593 4.691l-1.327 7.507h.474c2.607 0 5.119-2.111 5.593-4.692l1.232-7.037c.047-.234-.142-.469-.38-.469z" transform="translate(-171 -54) translate(171) translate(0 37) translate(0 17) translate(0 4.691) translate(0 2.346)"/>
                            </g>
                        </g>
                    </g>
                </g>
            </g>
        </g>
    </g>
</svg>
