<?xml version="1.0" encoding="UTF-8"?>
<svg width="5418px" height="1198px" viewBox="0 0 5418 1198" version="1.1" xmlns="http://www.w3.org/2000/svg" xmlns:xlink="http://www.w3.org/1999/xlink">
    <!-- Generator: Sketch 50.2 (55047) - http://www.bohemiancoding.com/sketch -->
    <title>meetjobs_standard</title>
    <desc>Created with Sketch.</desc>
    <defs>
        <path d="M477.519617,214.528923 C577.32484,214.528923 634.112069,283.73222 634.112069,383.211148 L634.112069,648.77779 L542.910245,648.77779 L542.910245,396.186704 C542.910245,337.364451 510.214931,297.57228 455.148981,297.57228 C400.08403,297.57228 362.225878,338.229954 362.225878,391.862184 L362.225878,648.77779 L271.885192,648.77779 L271.885192,396.186704 C271.885192,337.364451 237.468599,297.57228 183.263789,297.57228 C128.198838,297.57228 90.3416841,337.364451 90.3416841,396.186704 L90.3416841,648.77779 L0,648.77779 L0,224.044464 L84.3187054,224.044464 L84.3187054,263.836634 C113.571461,232.694501 155.731313,214.528923 206.494564,214.528923 C266.722354,214.528923 309.742346,240.480035 334.693402,281.136709 C364.807297,242.210042 415.570548,214.528923 477.519617,214.528923 Z M1094.99732,409.16226 C1094.99732,432.518859 1090.69562,455.008957 1088.1142,466.255504 L773.209012,466.255504 C785.254969,536.323306 838.59964,577.845483 910.872388,577.845483 C959.915359,577.845483 998.632653,558.814402 1033.90939,527.67227 L1076.92938,589.955536 C1032.18911,632.342219 975.401877,658.29333 908.291967,658.29333 C777.51171,658.29333 681.147047,562.274417 681.147047,436.843379 C681.147047,312.277844 776.650571,214.528923 899.687569,214.528923 C1012.39989,214.528923 1094.99732,297.57228 1094.99732,409.16226 Z M896.24601,291.517753 C836.878361,291.517753 788.696529,332.174428 774.930291,395.322199 L1004.65563,395.322199 C1002.93435,328.714413 953.89238,291.517753 896.24601,291.517753 Z M1546.46198,409.16226 C1546.46198,432.518859 1542.16028,455.008957 1539.57886,466.255504 L1224.67368,466.255504 C1236.71963,536.323306 1290.0643,577.845483 1362.33705,577.845483 C1411.38002,577.845483 1450.09732,558.814402 1485.37405,527.67227 L1528.39404,589.955536 C1483.65277,632.342219 1426.86654,658.29333 1359.75663,658.29333 C1228.97637,658.29333 1132.61171,562.274417 1132.61171,436.843379 C1132.61171,312.277844 1228.11524,214.528923 1351.15223,214.528923 C1463.86455,214.528923 1546.46198,297.57228 1546.46198,409.16226 Z M1347.71067,291.517753 C1288.34302,291.517753 1240.16119,332.174428 1226.39496,395.322199 L1456.1203,395.322199 C1454.40002,328.714413 1405.35704,291.517753 1347.71067,291.517753 Z M1768.06644,576.532572 C1783.55495,576.532572 1801.62289,574.802565 1823.99353,572.208053 L1823.99353,649.195885 C1800.76275,654.385907 1777.53297,658.711425 1749.13936,658.711425 C1655.35612,658.711425 1593.40705,613.729232 1593.40705,510.790289 L1593.40705,140.497795 L1684.60887,112.872579 L1684.60887,224.462558 L1810.22729,224.462558 L1810.22729,303.180398 L1684.60887,303.180398 L1684.60887,503.004756 C1684.60887,559.232497 1715.58291,576.532572 1768.06644,576.532572 Z M1968.03357,530.401234 C2002.66565,530.401234 2031.96861,558.915768 2031.96861,594.789338 C2031.96861,630.661845 2002.66565,658.256898 1968.03357,658.256898 C1932.51329,658.256898 1904.09645,630.661845 1904.09645,594.789338 C1904.09645,558.915768 1932.51329,530.401234 1968.03357,530.401234 Z M2169.27035,5.19002266 C2202.8248,5.19002266 2231.21842,32.0056389 2231.21842,65.7422836 C2231.21842,99.4789283 2202.8248,125.43004 2169.27035,125.43004 C2134.85376,125.43004 2107.32228,99.4789283 2107.32228,65.7422836 C2107.32228,32.0056389 2134.85376,5.19002266 2169.27035,5.19002266 Z M2214.01062,224.044464 L2214.01062,666.078864 C2214.01062,769.017807 2152.92269,814 2064.30229,814 C2039.35023,814 2021.28229,811.405488 2005.79478,806.214467 L2005.79478,729.226635 C2019.56102,730.956643 2029.88669,731.821147 2042.79179,731.821147 C2093.55504,731.821147 2123.66994,713.655569 2123.66994,658.29333 L2123.66994,224.044464 L2214.01062,224.044464 Z M2483.09461,214.528923 C2606.99275,214.528923 2707.65911,311.413339 2707.65911,435.978874 C2707.65911,560.54441 2606.99275,658.29333 2483.09461,658.29333 C2359.19848,657.428826 2260.25239,561.408914 2260.25239,435.978874 C2260.25239,311.413339 2358.33734,214.528923 2483.09461,214.528923 Z M2483.95475,297.57228 C2407.38131,298.437783 2352.31436,358.12554 2352.31436,436.843379 C2352.31436,515.562217 2407.38131,574.38447 2483.09461,574.38447 C2557.94878,574.38447 2614.73601,514.696714 2614.73601,436.843379 C2614.73601,357.260037 2557.94878,298.437783 2483.95475,297.57228 Z M2985.50535,214.528923 C3105.95993,214.528923 3192.85905,310.548834 3192.85905,436.843379 C3192.85905,563.138922 3105.95993,658.29333 2986.36549,658.29333 C2924.41542,658.29333 2870.21061,633.207722 2838.37643,589.955536 L2838.37643,648.77779 L2754.05873,648.77779 L2754.05873,0 L2844.39941,0 L2844.39941,275.946687 C2876.23359,237.020019 2926.99684,214.528923 2985.50535,214.528923 Z M2970.87897,575.249973 C3044.01086,575.249973 3099.93795,518.157727 3099.93795,435.978874 C3099.93795,353.800022 3043.15072,297.57228 2970.87897,297.57228 C2907.20862,297.57228 2843.53927,340.824466 2843.53927,436.843379 C2843.53927,533.727795 2908.06976,575.249973 2970.87897,575.249973 Z M3374.4625,214.528923 C3435.54943,214.528923 3485.45354,237.884524 3520.72928,280.272205 L3471.6873,336.498948 C3445.01397,308.817829 3409.73824,293.247761 3372.74122,293.247761 C3339.18577,293.247761 3315.09485,306.223316 3315.09485,333.904436 C3315.09485,357.260037 3332.30265,368.505585 3371.01994,384.076651 L3411.45951,400.512222 C3488.03396,432.518859 3526.75225,466.255504 3526.75225,528.537773 C3526.75225,614.17664 3454.47951,658.29333 3370.1598,658.29333 C3295.30564,658.29333 3235.93799,623.692181 3199.80111,576.114478 L3251.4245,519.022232 C3284.97996,554.488884 3321.97697,579.574493 3370.1598,579.574493 C3407.15682,579.574493 3438.13085,564.004425 3438.13085,531.997788 C3438.13085,504.316668 3413.1788,493.07112 3378.7642,479.230062 L3335.74421,461.064483 C3267.77316,432.518859 3225.61331,401.376727 3225.61331,337.364451 C3225.61331,258.645613 3291.00294,214.528923 3374.4625,214.528923 Z" id="path-1"></path>
    </defs>
    <g id="meetjobs_standard" stroke="none" stroke-width="1" fill="none" fill-rule="evenodd">
        <g transform="translate(193.000000, 191.000000)">
            <g>
                <g id="meetjobs_brandmark">
                    <g>
                        <path d="M680.916,413.4599 L823.868,698.9159 C837.47,726.0759 864.768,742.9489 895.108,742.9489 L1173.806,742.9489 C1192.09,742.9489 1206.964,728.0709 1206.964,709.7839 C1206.964,704.5769 1205.803,699.6089 1203.514,695.0179 L902.473,91.4529 C896.812,80.1029 885.428,73.0519 872.764,73.0519 C860.154,73.0519 848.792,80.0599 843.111,91.3419 L680.916,413.4599 Z M1173.806,815.9999 L895.108,815.9999 C866.239,815.9999 838.118,807.8899 813.786,792.5469 C790.155,777.6449 771.06,756.5809 758.566,731.6319 L599.185,413.3699 L777.882,58.4819 C796.047,22.4089 832.403,-0.0001 872.764,-0.0001 C913.298,-0.0001 949.725,22.5469 967.828,58.8419 L1268.87,662.4119 C1276.151,677.0119 1280,693.3929 1280,709.7839 C1280,768.3509 1232.361,815.9999 1173.806,815.9999 Z" id="right_employees" fill="#5DD4EF"></path>
                        <path d="M378.5752,91.4128 L76.5072,694.9808 C74.2042,699.5808 73.0362,704.5618 73.0362,709.7838 C73.0362,728.0708 87.9112,742.9488 106.1942,742.9488 L384.1622,742.9488 C414.4292,742.9488 441.6962,726.1358 455.3242,699.0708 L599.1832,413.3698 L437.9472,91.4058 C432.2772,80.0848 420.9022,73.0518 408.2622,73.0518 C395.6522,73.0518 384.2912,80.0598 378.6112,91.3398 L378.5662,91.4298 L378.5752,91.4128 Z M384.1622,815.9998 L106.1942,815.9998 C47.6382,815.9998 0.0002,768.3518 0.0002,709.7838 C0.0002,693.3428 3.8712,676.9168 11.1952,662.2818 L313.2142,58.8138 C313.2802,58.6788 313.3482,58.5428 313.4172,58.4088 C331.5922,22.3778 367.9272,-0.0002 408.2622,-0.0002 C448.7232,-0.0002 485.1192,22.4878 503.2492,58.6888 L680.9162,413.4598 L520.5542,731.9298 C508.0322,756.7988 488.9412,777.7908 465.3442,792.6348 C441.0462,807.9208 412.9732,815.9998 384.1622,815.9998 Z" id="left_standard_blue" fill="#2768F6"></path>
                        <polygon id="intersection" fill="#45A8DE" points="640.1387 332.0357 599.1847 413.3697 639.9607 494.7947 680.9147 413.4597"></polygon>
                    </g>
                </g>
                <g id="meetjobs_logotype" transform="translate(1504.000000, 0.000000)">
                    <g id="black">
                        <mask id="mask-2" fill="white">
                            <use xlink:href="#path-1"></use>
                        </mask>
                        <use id="Mask" fill="#000000" xlink:href="#path-1"></use>
                        <g id="white" mask="url(#mask-2)" fill="#FFFFFF">
                            <rect x="0" y="0" width="3765" height="814"></rect>
                        </g>
                    </g>
                </g>
            </g>
        </g>
    </g>
</svg>