<svg xmlns="http://www.w3.org/2000/svg" width="173" height="40" viewBox="0 0 173 40">
    <g fill="none" fill-rule="evenodd">
        <g fill="#FFF">
            <g>
                <path d="M63.09.051c6.13-.583 11.574 3.904 12.159 10.024.184 1.928-.143 3.785-.86 5.446 2.572 2.597 4.161 6.165 4.161 10.105 0 .43-.023.856-.06 1.278C77.842 34.244 71.67 40 64.148 40c-6.696 0-12.324-4.562-13.937-10.741-.303-1.16-.465-2.378-.465-3.633 0-3.938 1.588-7.505 4.158-10.1-.447-1.037-.745-2.156-.858-3.339C52.46 6.067 56.958.634 63.089.051zM14.974 7.053l-1.153 4.302.168.008c7.143.93 12.53 7.054 12.53 14.243 0 7.928-6.462 14.378-14.405 14.378-4.835 0-9.323-2.405-12.003-6.434L0 33.383l.781-3.032.825-3.202.02.028c.027.037.08.108.153.203 1.12 1.894 3.078 3.443 5.554 4.138.625.175 1.25.283 1.869.336.72.084 1.471.065 2.217-.064 3.018-.443 5.527-2.325 6.307-5.093.797-2.827-.43-5.8-2.874-7.748-.12-.1-.244-.197-.372-.291l-.01-.007c-.275-.203-.56-.395-.867-.566-.647-.36-1.216-.601-1.78-.763-.15-.05-.295-.104-.448-.147-2.67-.75-5.344-.341-7.347.895l1.76-6.498 9.187-4.519zM44.993 0l-3.974 39.984h-8.224l3.132-32.93-4.924-.007L37.295 0h7.698zm19.155 18.965c-3.686 0-6.674 2.982-6.674 6.661l.003.106c.057 3.63 3.02 6.555 6.671 6.555 3.64 0 6.598-2.91 6.67-6.526.001-.045.004-.09.004-.135 0-3.679-2.988-6.661-6.674-6.661zm.001-11.912c-2.14 0-3.876 1.732-3.876 3.869 0 .287.034.565.093.834.382 1.735 1.93 3.034 3.783 3.034s3.4-1.298 3.783-3.033c.06-.27.093-.548.093-.835 0-2.137-1.735-3.869-3.876-3.869z" transform="translate(-361 -4497) translate(361 4497)"/>
                <path d="M8.924 0L5.872 11.262 5.788 11.572 14.975 7.054 23.368 7.054 29.672 0z" opacity=".6" transform="translate(-361 -4497) translate(361 4497)"/>
                <g>
                    <path d="M18.536 34v6h-7.041v-6h7.041zm10.021 0v6h-7.013v-6h7.013zM8.52 34l-1.215 4.934C7.15 39.56 6.588 40 5.942 40H0l1.477-6h7.042zM38.6 34l1.476 6h-5.942c-.645 0-1.208-.44-1.362-1.066L31.56 34H38.6zM86.166 0v2.6c0 .773-.628 1.4-1.403 1.4h-2.33v12.037h3.733v4h-3.732V36h2.33c.774 0 1.402.627 1.402 1.4V40h-16.37l1-4h4.624V20.037h-2.48v-4h2.48V4h-2.48V0h13.226zM60.318 0v4h-3.483v12.037h3.482v4h-3.482V36h1.342l-.999 4h-11.09v-2.6c0-.773.629-1.4 1.404-1.4h2.329V20.037h-3.732v-4h3.732V4h-2.33c-.774 0-1.402-.627-1.402-1.4V0h14.229zm9.817 0v24.957c0 1.63-.2 3.255-.595 4.838L66.99 40h-7.013l2.55-10.205c.395-1.583.595-3.208.595-4.838V11.998h-2.48c-.775 0-1.403-.626-1.403-1.4v-2.6h3.883V0h7.013zM27.052 16.8c.775 0 1.403.627 1.403 1.4v1.4h11.622l-.987 4H28.455v2.8h11.622l-1.185 4.8h-17.45V16.8zm-8.416-6.4v20.8h-7.014V28H7.014v1.8c0 .773-.628 1.4-1.403 1.4H0V10.4h18.636zm-7.014 10.8H7.014V24h4.608v-2.8zm0-6.8H7.014v2.8h4.608v-2.8zM27.052 0c.775 0 1.403.627 1.403 1.4v1.4h11.622l-.987 4H28.455v2.8h11.622l-1.185 4.8h-17.45V0zM8.617 0l-.793 4h3.798V3c0-.773.628-1.4 1.403-1.4h5.61V8H0l1.586-8h7.03z" transform="translate(-361 -4497) translate(361 4497) translate(86.834)"/>
                </g>
            </g>
        </g>
    </g>
</svg>
